<svg xmlns="http://www.w3.org/2000/svg" width="575" height="281" viewBox="0 0 575 281" version="1.1">
	<path d="M 110.951 22.547 C 83.333 27.549, 56.129 44.428, 38.959 67.215 C 31.113 77.627, 22.603 95.050, 19.282 107.500 C 16.851 116.613, 16.610 119.186, 16.557 136.500 C 16.506 153.369, 16.764 156.498, 18.851 164.394 C 30.154 207.157, 61.858 238.893, 104.500 250.129 C 112.456 252.225, 115.705 252.500, 132.500 252.500 C 154.045 252.500, 161.845 251.051, 178.201 244.013 C 210.997 229.899, 236.603 200.491, 245.692 166.500 C 248.152 157.302, 248.368 154.937, 248.390 137 C 248.411 118.975, 248.212 116.761, 245.757 107.723 C 240.368 87.884, 230.080 70.093, 215.513 55.425 C 198.104 37.896, 176.711 26.595, 153.119 22.467 C 142.770 20.656, 121.166 20.697, 110.951 22.547 M 120 80.441 C 120 97.145, 119.619 108.117, 119.027 108.483 C 118.492 108.814, 117.575 110.865, 116.989 113.042 C 115.537 118.434, 117.266 124.466, 121.467 128.667 L 124.756 131.956 121.378 146.079 C 119.520 153.847, 118 160.382, 118 160.601 C 118 160.821, 132.850 161, 151 161 L 184 161 184 174.500 L 184 188 137.500 188 L 91 188 91 126 C 91 91.900, 90.720 64, 90.377 64 C 88.692 64, 76.802 73.505, 71.443 79.136 C 63.883 87.079, 59.720 93.141, 55.518 102.325 C 49.855 114.703, 48.492 121.702, 48.568 138 C 48.629 151.083, 48.909 153.331, 51.435 161 C 56.713 177.030, 63.350 187.481, 75.311 198.595 C 90.804 212.991, 107.260 219.772, 129.010 220.725 C 168.881 222.472, 203.225 197.298, 214.585 158 C 216.066 152.876, 216.453 148.326, 216.410 136.500 C 216.361 122.854, 216.104 120.733, 213.562 113 C 208.450 97.455, 202.193 87.288, 191.365 76.939 C 174.088 60.426, 155.644 53.021, 131.750 53.007 L 120 53 120 80.441 M 272 137 C 272 184.333, 272.343 209, 273 209 C 273.657 209, 274 184.333, 274 137 C 274 89.667, 273.657 65, 273 65 C 272.343 65, 272 89.667, 272 137 M 130 87 L 130 101 132.684 101 C 136.860 101, 143.261 104.617, 145.846 108.438 C 150.092 114.712, 148.498 125.103, 142.576 129.762 C 139.859 131.899, 139.735 130.470, 144.101 147.250 L 145.077 151 164.539 151 L 184 151 184 130.589 C 184 107.249, 183.047 102.429, 176.471 92.522 C 168.577 80.630, 152.792 73.069, 135.750 73.017 L 130 73 130 87 M 439.054 92.667 C 433.002 94.886, 425.760 102.321, 423.667 108.463 C 418.887 122.493, 424.411 137.100, 436.762 143.088 C 440.485 144.893, 443.214 145.388, 449.500 145.397 C 458.160 145.411, 463.307 143.545, 467.749 138.784 L 469.998 136.373 466.963 133.464 C 464.395 131.004, 463.663 130.748, 462.214 131.803 C 457.418 135.292, 451.646 137.199, 447.761 136.578 C 436.363 134.755, 430.190 125.462, 432.433 113.503 C 433.377 108.475, 439.202 102.292, 444.287 100.923 C 449.766 99.447, 456.346 100.579, 459.956 103.617 C 463.176 106.326, 464.850 106.033, 468.369 102.145 C 470.175 100.149, 470.157 100.050, 467.560 97.644 C 466.100 96.290, 463.239 94.392, 461.203 93.426 C 456.057 90.983, 444.706 90.595, 439.054 92.667 M 297 118.523 L 297 145.045 315.250 144.773 L 333.500 144.500 333.500 140.500 L 333.500 136.500 320.250 136.221 L 307 135.942 307 113.971 L 307 92 302 92 L 297 92 297 118.523 M 347 118.500 L 347 145 352 145 L 357 145 357 118.500 L 357 92 352 92 L 347 92 347 118.500 M 369 96.500 L 369 101 377.500 101 L 386 101 386 123 L 386 145 391 145 L 396 145 396 123 L 396 101 404.500 101 L 413 101 413 96.500 L 413 92 391 92 L 369 92 369 96.500 M 484 118.500 L 484 145 489 145 L 494 145 494 133.500 L 494 122 506.467 122 L 518.934 122 519.217 133.250 L 519.500 144.500 524.250 144.805 L 529 145.110 529 118.555 L 529 92 524 92 L 519 92 519 102.500 L 519 113 506.500 113 L 494 113 494 102.500 L 494 92 489 92 L 484 92 484 118.500 M 300.400 161.400 C 297.508 164.292, 297 165.495, 297 169.450 C 297 172.007, 297.683 175.419, 298.517 177.033 C 301.353 182.516, 309.041 184.582, 315.050 181.474 C 318.321 179.782, 318.673 178.803, 316.620 177.100 C 315.564 176.224, 314.511 176.371, 312.132 177.727 C 309.304 179.340, 308.776 179.362, 306.286 177.975 C 300.603 174.810, 299.573 168.427, 304.025 163.975 C 306.336 161.664, 310.801 161.403, 313.556 163.417 C 315.470 164.817, 318 163.954, 318 161.903 C 318 160.293, 312.095 158, 307.950 158 C 304.564 158, 303.174 158.626, 300.400 161.400 M 326.274 160.565 C 319.710 165.738, 320.031 176.092, 326.898 180.713 C 335.442 186.463, 346 180.818, 346 170.500 C 346 159.949, 334.441 154.128, 326.274 160.565 M 352 170.570 C 352 183.033, 352.019 183.136, 354.250 182.820 C 356.291 182.530, 356.546 181.828, 357 175.259 L 357.500 168.017 363.331 175.566 C 371.592 186.263, 372.500 185.760, 372.500 170.486 C 372.500 158.887, 372.429 158.490, 370.293 158.186 C 368.199 157.888, 368.071 158.273, 367.793 165.686 L 367.500 173.500 361.531 165.750 C 352.852 154.480, 352 154.911, 352 170.570 M 381.189 160.039 C 378.164 162.857, 378.197 168.453, 381.250 170.358 C 382.488 171.130, 384.847 172.077, 386.494 172.461 C 390.069 173.296, 392 174.749, 392 176.603 C 392 178.658, 387.139 179.452, 383.226 178.037 C 380.366 177.003, 379.599 177.021, 378.882 178.141 C 377.407 180.444, 381.617 183, 386.888 183 C 392.305 183, 395.499 181.132, 396.431 177.417 C 397.408 173.526, 394.853 170.444, 389.050 168.516 C 383.302 166.607, 382.296 165.554, 384.121 163.355 C 385.115 162.156, 386.517 161.944, 390.207 162.433 C 394.493 163.002, 395 162.865, 395 161.141 C 395 158.789, 393.144 158, 387.607 158 C 384.732 158, 382.676 158.653, 381.189 160.039 M 402 167.577 C 402 176.829, 402.099 177.253, 404.923 180.077 C 407.216 182.369, 408.742 183, 412 183 C 415.258 183, 416.784 182.369, 419.077 180.077 C 421.901 177.253, 422 176.829, 422 167.577 C 422 158.834, 421.835 158, 420.099 158 C 418.397 158, 418.163 158.948, 417.849 167.081 C 417.557 174.670, 417.181 176.396, 415.559 177.581 C 414.491 178.362, 412.890 179, 412 179 C 411.110 179, 409.509 178.362, 408.441 177.581 C 406.819 176.396, 406.443 174.670, 406.151 167.081 C 405.837 158.948, 405.603 158, 403.901 158 C 402.165 158, 402 158.834, 402 167.577 M 429 170.500 L 429 183 436.893 183 C 442.742 183, 444.925 182.637, 445.324 181.598 C 446.149 179.447, 445.119 179, 439.333 179 L 434 179 434 168.500 L 434 158 431.500 158 L 429 158 429 170.500 M 446 160 C 446 161.619, 446.667 162, 449.500 162 L 453 162 453 172.500 L 453 183 455.500 183 L 458 183 458 172.500 L 458 162 461.500 162 C 464.333 162, 465 161.619, 465 160 C 465 158.140, 464.333 158, 455.500 158 C 446.667 158, 446 158.140, 446 160 M 470 170.500 C 470 183.035, 470.018 183.136, 472.250 182.820 C 474.441 182.508, 474.500 182.183, 474.500 170.500 C 474.500 158.817, 474.441 158.492, 472.250 158.180 C 470.018 157.864, 470 157.965, 470 170.500 M 482 170.500 C 482 182.333, 482.107 183, 484 183 C 485.824 183, 486 182.333, 486 175.417 C 486 171.246, 486.405 167.983, 486.900 168.167 C 487.396 168.350, 490.365 171.787, 493.500 175.804 C 501.420 185.955, 502.194 185.492, 502.364 170.500 C 502.496 158.836, 502.438 158.491, 500.291 158.186 C 498.191 157.887, 498.069 158.264, 497.791 165.876 L 497.500 173.881 491.512 165.940 C 482.863 154.471, 482 154.885, 482 170.500 M 512.645 161.007 C 501.362 170.914, 513.666 188.395, 527.050 181.474 C 529.717 180.095, 530 179.471, 530 174.974 C 530 170.335, 529.832 170, 527.500 170 C 525.261 170, 525 170.407, 525 173.893 C 525 177.900, 523.896 179, 519.873 179 C 516.592 179, 513 174.558, 513 170.500 C 513 168.021, 513.760 166.149, 515.455 164.455 C 518.126 161.783, 520.382 161.435, 524.608 163.041 C 526.728 163.847, 527.674 163.755, 528.798 162.631 C 530.066 161.363, 529.861 160.979, 527.174 159.590 C 522.130 156.982, 516.617 157.519, 512.645 161.007 M 329.025 163.975 C 322.493 170.507, 328.656 181.456, 336.935 178.027 C 340.760 176.442, 342.453 171.903, 340.934 167.301 C 339.147 161.886, 332.868 160.132, 329.025 163.975" stroke="none" fill="#0a196d" fill-rule="evenodd"/>
</svg>