<svg xmlns="http://www.w3.org/2000/svg" width="578" height="432" viewBox="0 0 578 432" version="1.1">
	<path d="M 212 28.680 C 193.981 30.530, 179.547 38.294, 173.946 49.148 C 165.735 65.059, 164.639 104.677, 171.019 154.989 C 172.029 162.958, 172.776 169.539, 172.678 169.614 C 172.580 169.690, 167.071 171.588, 160.437 173.834 C 146.431 178.574, 135 183.518, 135 184.836 C 135 186.414, 137.903 188.251, 139.455 187.656 C 140.270 187.343, 141.202 187.518, 141.527 188.044 C 142.667 189.888, 145.168 189.106, 144.533 187.103 C 143.898 185.105, 144.360 184.890, 163.381 178.362 C 174.287 174.619, 174.228 174.581, 175.589 186.159 L 176.244 191.735 164.372 193.023 C 141.191 195.539, 129.518 194.695, 132.801 190.740 C 134.534 188.651, 133.124 185, 130.583 185 C 127.496 185, 126 186.871, 126 190.731 C 126 192.690, 125.414 194.288, 124.577 194.609 C 122.383 195.451, 121.921 197.778, 123.614 199.471 C 125.427 201.285, 134.127 201.479, 150 200.060 C 155.775 199.544, 164.288 198.981, 168.919 198.811 L 177.337 198.500 178.671 206.500 C 179.404 210.900, 180.665 218.100, 181.473 222.500 C 194.111 291.314, 194.480 294.556, 194.454 336.750 C 194.434 369.587, 194.961 377.470, 196.560 368.250 C 196.917 366.188, 197.639 362.700, 198.163 360.500 C 198.687 358.300, 199.369 345.475, 199.678 332 C 200.253 306.945, 198.987 287.937, 195.482 269 C 194.718 264.875, 193.376 256.325, 192.500 250 C 191.100 239.901, 189.449 230.502, 185.929 212.600 C 185.400 209.905, 185.111 207.556, 185.288 207.379 C 185.464 207.202, 187.431 207.959, 189.657 209.060 C 194.655 211.533, 197.094 210.798, 203.507 204.886 C 207.635 201.082, 208.182 200.850, 209.765 202.238 C 215.299 207.089, 227.049 208.814, 230.275 205.249 C 231.762 203.605, 231.547 203.479, 226.751 203.188 C 220.409 202.802, 215.749 200.912, 212.499 197.405 C 209.098 193.734, 209.302 191.439, 213.149 190.098 C 219.194 187.991, 220.037 188.453, 219.345 193.500 C 218.555 199.265, 220.259 199.429, 221.945 193.750 C 224.364 185.601, 226.475 184.922, 227.316 192.024 C 228.033 198.078, 228.531 199, 231.084 199 C 233.789 199, 235.041 195.145, 234.319 189.045 C 233.815 184.794, 233.979 184, 235.361 184 C 236.262 184, 237 184.647, 237 185.438 C 237 186.229, 238.178 190.529, 239.618 194.992 C 241.897 202.059, 242.511 203.069, 244.368 202.804 C 247.095 202.415, 247.078 199.147, 244.298 189.263 C 242.057 181.295, 242.331 180.484, 247.616 179.427 C 250.233 178.903, 250.667 179.192, 251.740 182.171 C 252.399 184.002, 253.014 187.075, 253.107 189 C 253.199 190.925, 253.698 194.075, 254.216 196 C 255.066 199.162, 254.628 200.563, 249.682 210.500 C 240.794 228.360, 238.555 237.606, 241.445 244.522 C 247.734 259.575, 262.887 265.275, 296.058 265.066 C 306.265 265.002, 319.315 264.538, 325.058 264.036 C 330.801 263.534, 335.796 263.433, 336.159 263.812 C 336.521 264.190, 336.371 267.200, 335.824 270.500 C 334.182 280.411, 335.248 297.609, 337.869 303.500 C 341.541 311.753, 344.867 315.755, 350.309 318.467 C 364.289 325.433, 377.269 318.831, 386.854 299.881 C 394.696 284.377, 395.776 266.115, 390.365 240.500 C 384.115 210.911, 381.876 201.036, 379.937 194.500 C 376.662 183.466, 376.626 183.602, 383 182.911 C 391.786 181.957, 402.415 175.241, 404.994 169.014 C 406.719 164.851, 403.998 158.663, 399.043 155.475 C 394.840 152.771, 382.752 149.627, 379.964 150.512 C 377.547 151.279, 377.484 150.625, 379.722 148.011 C 380.669 146.905, 382.328 146, 383.408 146 C 386.002 146, 396.042 143.630, 409 139.958 C 414.775 138.322, 426.449 135.491, 434.942 133.667 C 444.446 131.625, 450.554 129.839, 450.827 129.020 C 451.609 126.674, 424.542 129.858, 411 133.705 C 402.906 136.004, 386.058 141.608, 381.782 143.422 C 379.737 144.290, 376.476 145, 374.535 145 C 371.896 145, 370.014 145.896, 367.075 148.551 C 364.601 150.787, 361.728 152.320, 359.322 152.690 C 353.214 153.629, 350.640 157.116, 355.027 158.508 C 357.967 159.442, 360.204 163.399, 361.138 169.319 C 361.827 173.688, 362.647 175.127, 366.369 178.500 C 370.276 182.040, 371.043 183.477, 373.038 191 C 374.277 195.675, 376.085 202.425, 377.054 206 C 378.024 209.575, 379.788 217.225, 380.975 223 C 382.162 228.775, 383.975 237.100, 385.004 241.500 C 389.650 261.369, 388.515 286.710, 382.435 298.851 C 377.633 308.439, 368.232 315.981, 361.066 315.994 C 352.539 316.009, 345.959 309.774, 342.513 298.416 C 340.718 292.499, 340.608 273.626, 342.330 267 C 343.494 262.523, 343.530 262.494, 349.500 261.223 C 360.352 258.913, 376.370 254.963, 376.856 254.477 C 378.272 253.062, 375.264 252.836, 369.266 253.907 C 359.343 255.680, 345.867 257.201, 345.282 256.615 C 344.507 255.840, 348.623 242.817, 353.622 230.226 C 363.338 205.758, 366.025 194.733, 364.019 187.568 C 362.519 182.211, 360.341 180.395, 354.250 179.423 C 350.028 178.749, 350 178.717, 350 174.521 C 350 171.957, 350.965 168.483, 352.455 165.680 C 354.042 162.696, 354.537 160.832, 353.855 160.411 C 352.294 159.445, 347.719 163.160, 346 166.789 C 345.175 168.531, 344.167 169.966, 343.761 169.978 C 343.354 169.990, 340.507 167.724, 337.435 164.941 C 330.545 158.701, 328.320 158.976, 325.719 166.388 C 325.548 166.877, 323.698 166.659, 321.609 165.903 C 317.873 164.552, 317.761 164.584, 314.905 167.780 C 313.307 169.569, 312 171.699, 312 172.516 C 312 174.567, 311.200 174.390, 307.411 171.500 C 303.722 168.686, 297.950 168.150, 296.047 170.444 C 295.100 171.584, 294.333 171.653, 292.398 170.771 C 290.451 169.885, 289.207 170.008, 286.350 171.370 C 284.371 172.314, 282.499 172.832, 282.189 172.522 C 281.412 171.746, 289.475 163.609, 295.250 159.340 C 301.447 154.760, 301.318 152, 294.909 152 C 293.081 152, 293.109 151.753, 295.450 147.250 C 302.671 133.359, 303.393 113.958, 297.471 92.898 C 296.080 87.951, 295.206 83.475, 295.529 82.953 C 296.707 81.047, 312.182 83.967, 318.622 87.311 C 325.363 90.811, 327.948 99.112, 325.765 110.251 C 325.253 112.864, 325.024 115.564, 325.256 116.251 C 326.017 118.504, 328.959 111.274, 330.181 104.148 C 331.255 97.890, 331.185 96.737, 329.512 93.027 C 325.754 84.693, 315.503 79.504, 300.271 78.225 L 291.633 77.500 287.066 69.865 C 279.752 57.637, 278.453 55.921, 270.267 47.689 C 253.962 31.291, 237.828 26.027, 212 28.680 M 208.247 34.109 C 196.543 36.059, 187.569 40.536, 184.313 46.048 C 183.353 47.672, 182.191 49, 181.728 49 C 180.409 49, 176.877 57.739, 175.494 64.426 C 174.319 70.107, 172.262 100.077, 172.743 104.500 C 172.863 105.600, 172.982 110.100, 173.007 114.500 C 173.032 118.900, 173.488 124.975, 174.020 128 C 174.552 131.025, 175.434 137.325, 175.980 142 C 178.137 160.480, 179.759 169.705, 181.264 172.048 C 182.130 173.397, 183.819 177.763, 185.017 181.751 C 186.215 185.740, 187.516 189.201, 187.908 189.443 C 189.209 190.247, 197.164 187.736, 197.694 186.354 C 198.541 184.147, 197.330 180.948, 192.637 173 C 188.262 165.592, 186.069 159.368, 179.998 137.127 C 174.645 117.520, 174.010 101.211, 178.250 92.192 C 180.480 87.448, 186.954 82, 190.362 82 C 192.082 82, 191.650 82.790, 187.769 86.750 C 181.711 92.931, 180.993 95.124, 181.035 107.315 C 181.067 116.503, 181.952 122.490, 184.831 133 C 185.358 134.925, 186.952 140.775, 188.374 146 C 189.795 151.225, 192.807 159.248, 195.066 163.829 C 197.326 168.410, 198.886 172.447, 198.533 172.800 C 198.180 173.153, 197.473 172.780, 196.961 171.971 C 196.449 171.162, 196.024 170.962, 196.015 171.527 C 195.997 172.741, 198.938 177.199, 200.416 178.197 C 201.851 179.168, 202.967 177.079, 202.985 173.385 C 202.999 170.571, 205.796 165.661, 208.466 163.765 C 211.283 161.764, 214.929 163.077, 218.433 167.353 C 220.395 169.747, 222 171.968, 222 172.288 C 222 172.608, 222.485 174.137, 223.078 175.685 L 224.155 178.500 225.536 175.235 C 227.202 171.294, 229.344 170.314, 233.150 171.751 C 235.789 172.747, 236.055 172.627, 236.668 170.164 C 238.054 164.596, 243.489 163.434, 249.029 167.521 C 250.997 168.974, 253.094 169.774, 253.973 169.409 C 254.813 169.061, 257.654 168.188, 260.286 167.469 C 265.489 166.048, 275.278 160.259, 274.528 159.045 C 274.273 158.632, 269.646 158.051, 264.246 157.753 C 245.306 156.710, 233.293 150.835, 227.687 139.873 C 220.838 126.480, 225.850 114.489, 245.717 96.732 C 256.413 87.174, 268.534 81.279, 281.250 79.455 C 283.926 79.071, 286 78.244, 286 77.562 C 286 76.896, 283.209 72.110, 279.797 66.926 C 270.165 52.290, 251.334 35.224, 248.994 39.010 C 248.465 39.866, 246.160 39.190, 240.774 36.600 C 233.648 33.172, 232.818 33.006, 223.395 33.117 C 217.953 33.181, 211.136 33.628, 208.247 34.109 M 277.751 84.941 C 260.352 89.633, 239.219 106.588, 231.884 121.739 C 230.053 125.523, 229.942 126.589, 230.945 130.770 C 234.672 146.305, 244.714 151.872, 270.500 152.697 L 284.500 153.145 288.131 148.106 C 296.588 136.373, 298.537 112.399, 292.529 94 C 288.486 81.615, 288.973 81.914, 277.751 84.941 M 121.500 156.294 C 110.500 156.750, 89.613 157.208, 75.084 157.312 C 55.048 157.455, 48.568 157.800, 48.253 158.744 C 48.024 159.428, 49.028 160.440, 50.484 160.994 C 53.843 162.271, 88.020 162.301, 104.196 161.042 C 110.963 160.515, 119.650 159.841, 123.500 159.545 C 139.505 158.313, 146.482 156.993, 142.859 155.881 C 142.112 155.651, 132.500 155.837, 121.500 156.294 M 146 156 C 144.718 156.828, 144.754 156.972, 146.250 156.985 C 147.213 156.993, 148 156.550, 148 156 C 148 154.780, 147.887 154.780, 146 156 M 369.655 157.829 C 367.217 160.523, 367.602 163.259, 371.513 171.025 C 375.218 178.383, 375.306 178.436, 383 178.032 C 390.319 177.648, 397.378 173.848, 400.080 168.837 C 401.599 166.021, 398.743 161.082, 394.054 158.419 C 388.385 155.199, 372.385 154.812, 369.655 157.829 M 279.750 164.173 C 276.587 165.889, 274 167.902, 274 168.646 C 274 171.348, 277.681 169.900, 282 165.500 C 284.429 163.025, 286.210 161.012, 285.958 161.027 C 285.706 161.041, 282.913 162.457, 279.750 164.173 M 210.133 173.133 C 207.912 178.479, 207.311 184, 208.951 184 C 209.474 184, 212.174 183.513, 214.951 182.917 C 220.422 181.744, 220.972 180.695, 218.933 175.315 C 217.847 172.448, 214.214 168, 212.959 168 C 212.578 168, 211.307 170.310, 210.133 173.133 M 332.497 172.250 C 332.907 174.037, 333.526 177.204, 333.872 179.287 C 334.537 183.297, 334.633 183.347, 339.830 182.372 C 344.937 181.414, 344.841 179.423, 339.424 173.923 C 333.618 168.028, 331.404 167.494, 332.497 172.250 M 241.036 171.456 C 239.360 173.476, 240.715 175.221, 243.334 174.416 C 246.324 173.499, 246.462 173.262, 245.020 171.524 C 243.441 169.621, 242.572 169.606, 241.036 171.456 M 318.249 171.271 C 316.321 173.738, 316.136 177.463, 317.624 183.879 C 319.840 193.436, 319.920 193.504, 324.699 189.990 L 328.810 186.967 327.479 181.921 C 325.336 173.798, 320.572 168.300, 318.249 171.271 M 299.648 173.760 C 299.390 174.178, 299.984 179.016, 300.970 184.510 C 302.788 194.652, 302.429 198, 299.524 198 C 297.470 198, 296.654 196.177, 295.919 189.943 C 295.011 182.244, 291.695 175, 289.079 175 C 286.621 175, 283.713 179.089, 284.575 181.335 C 285.810 184.554, 288.598 198.705, 288.221 199.838 C 287.627 201.619, 284.183 201.218, 283.165 199.250 C 282.668 198.287, 281.705 195.025, 281.025 192 C 279.531 185.346, 277.354 180, 276.139 180 C 273.673 180, 272.748 183.027, 273.919 187.257 C 274.566 189.591, 275.186 193.525, 275.298 196 C 275.476 199.958, 275.233 200.538, 273.285 200.815 C 271.595 201.055, 270.944 200.523, 270.535 198.565 C 270.241 197.154, 269.766 194.875, 269.481 193.500 C 269.195 192.125, 268.633 191.018, 268.231 191.039 C 266.793 191.116, 260.474 200.667, 255.358 210.497 C 236.614 246.518, 248.627 260.509, 298 260.156 C 312.639 260.051, 337.916 258.574, 338.448 257.792 C 338.558 257.631, 339.666 253.900, 340.910 249.500 C 342.155 245.100, 344.677 237.900, 346.515 233.500 C 356.764 208.964, 360.638 194.895, 358.890 188.564 C 357.928 185.079, 357.794 185, 352.857 185 C 345.588 185, 337.275 187.650, 335.356 190.579 C 334.456 191.953, 332.797 193, 331.520 193 C 326.250 193, 320.067 201.656, 320.022 209.100 C 320.007 211.470, 321.018 214.201, 322.982 217.100 C 326.433 222.192, 326.672 223.175, 324.250 222.317 C 316.987 219.741, 312.538 207.871, 316.171 200.760 C 316.757 199.612, 316.574 198.251, 315.632 196.760 C 314.848 195.517, 313.458 191.865, 312.544 188.645 C 310.419 181.153, 301.466 170.820, 299.648 173.760 M 258.582 175.316 C 256.947 176.512, 256.894 177.177, 257.999 182.566 C 259.808 191.380, 260.268 191.827, 263.357 187.776 C 266.537 183.607, 266.712 180.175, 263.927 176.635 C 261.559 173.623, 261.064 173.501, 258.582 175.316 M 271 175 C 271 175.550, 271.450 176, 272 176 C 272.550 176, 273 175.550, 273 175 C 273 174.450, 272.550 174, 272 174 C 271.450 174, 271 174.450, 271 175 M 194.500 194.379 C 189.870 195.478, 189.515 195.776, 189.705 198.404 C 189.943 201.699, 192.577 205, 194.968 205 C 197.395 205, 201.684 200.001, 202.474 196.250 C 203.262 192.513, 202.808 192.407, 194.500 194.379" stroke="none" fill="#20264f" fill-rule="evenodd"/>
</svg>