<svg xmlns="http://www.w3.org/2000/svg" width="512" height="512" viewBox="0 0 512 512">
  <rect width="512" height="512" rx="112" fill="#0a196d"/>
  <g transform="translate(106 106) scale(1.277)">
    <path fill="#ffffff" fill-rule="evenodd" d="M 95.951 2.547 C 68.333 7.549, 41.129 24.428, 23.959 47.215 C 16.113 57.627, 7.603 75.050, 4.282 87.500 C 1.851 96.613, 1.610 99.186, 1.557 116.500 C 1.506 133.369, 1.764 136.498, 3.851 144.394 C 15.154 187.157, 46.858 218.893, 89.500 230.129 C 97.456 232.225, 100.705 232.500, 117.500 232.500 C 139.045 232.500, 146.845 231.051, 163.201 224.013 C 195.997 209.899, 221.603 180.491, 230.692 146.500 C 233.152 137.302, 233.368 134.937, 233.390 117 C 233.411 98.975, 233.212 96.761, 230.757 87.723 C 225.368 67.884, 215.080 50.093, 200.513 35.425 C 183.104 17.896, 161.711 6.595, 138.119 2.467 C 127.770 0.656, 106.166 0.697, 95.951 2.547 M 105 60.441 C 105 77.145, 104.619 88.117, 104.027 88.483 C 103.492 88.814, 102.575 90.865, 101.989 93.042 C 100.537 98.434, 102.266 104.466, 106.467 108.667 L 109.756 111.956 106.378 126.079 C 104.520 133.847, 103 140.382, 103 140.601 C 103 140.821, 117.850 141, 136 141 L 169 141 169 154.500 L 169 168 122.500 168 L 76 168 76 106 C 76 71.900, 75.720 44, 75.377 44 C 73.692 44, 61.802 53.505, 56.443 59.136 C 48.883 67.079, 44.720 73.141, 40.518 82.325 C 34.855 94.703, 33.492 101.702, 33.568 118 C 33.629 131.083, 33.909 133.331, 36.435 141 C 41.713 157.030, 48.350 167.481, 60.311 178.595 C 75.804 192.991, 92.260 199.772, 114.010 200.725 C 153.881 202.472, 188.225 177.298, 199.585 138 C 201.066 132.876, 201.453 128.326, 201.410 116.500 C 201.361 102.854, 201.104 100.733, 198.562 93 C 193.450 77.455, 187.193 67.288, 176.365 56.939 C 159.088 40.426, 140.644 33.021, 116.750 33.007 L 105 33 105 60.441 M 115 67 L 115 81 117.684 81 C 121.860 81, 128.261 84.617, 130.846 88.438 C 135.092 94.712, 133.498 105.103, 127.576 109.762 C 124.859 111.899, 124.735 110.470, 129.101 127.250 L 130.077 131 149.539 131 L 169 131 169 110.589 C 169 87.249, 168.047 82.429, 161.471 72.522 C 153.577 60.630, 137.792 53.069, 120.750 53.017 L 115 53 115 67"/>
  </g>
</svg>
